<svg width="18" height="19" viewBox="0 0 18 19" fill="none" xmlns="http://www.w3.org/2000/svg">
<path d="M2.95576 17.814L2.95554 17.8117L1.83033 6.19995H16.1689L15.0437 17.8117L15.0436 17.8126C15.0077 18.1899 14.6803 18.5 14.2615 18.5H3.73778C3.31265 18.5 2.99177 18.204 2.95576 17.814Z" fill="white" stroke="black"/>
<path d="M11.0801 1.9V2.4H11.5801H16.7201C17.1624 2.4 17.5 2.74351 17.5 3.16C17.5 3.5765 17.1624 3.92001 16.7201 3.92001H1.27991C0.837573 3.92001 0.5 3.5765 0.5 3.16C0.5 2.74351 0.837573 2.4 1.27991 2.4H6.44018H6.94018V1.9V1.26C6.94018 0.843504 7.27775 0.5 7.72009 0.5H10.3002C10.7426 0.5 11.0801 0.843504 11.0801 1.26V1.9Z" fill="white" stroke="black"/>
</svg>
