<svg width="18" height="19" viewBox="0 0 26 28" fill="none" xmlns="http://www.w3.org/2000/svg">
<rect width="26" height="28" fill="#E5E5E5"/>
<rect width="567" height="1311" transform="translate(-185 -1019)" fill="#F7F7F7"/>
<rect x="-185" y="-442" width="567" height="536" fill="none" fill-opacity="0.3"/>
<g filter="url(#filter0_d_0_1)">
<path d="M6.95558 18.0969L6.95537 18.0947L5.82926 6.29004H20.1695L19.0434 18.0947L19.0433 18.0955C19.0064 18.4889 18.6734 18.8002 18.2612 18.8002H7.73754C7.31913 18.8002 6.99252 18.5033 6.95558 18.0969Z" fill="white" stroke="black"/>
<path d="M15.0801 1.93002V2.43002H15.5801H20.7201C21.155 2.43002 21.5 2.77501 21.5 3.20993C21.5 3.64485 21.155 3.98984 20.7201 3.98984H5.27991C4.84499 3.98984 4.5 3.64485 4.5 3.20993C4.5 2.77501 4.84499 2.43002 5.27991 2.43002H10.4402H10.9402V1.93002V1.27991C10.9402 0.844991 11.2852 0.5 11.7201 0.5H14.3002C14.7351 0.5 15.0801 0.844991 15.0801 1.27991V1.93002Z" fill="white" stroke="black"/>
</g>
<defs>
<filter id="filter0_d_0_1" x="0" y="0" width="26" height="27.3003" filterUnits="userSpaceOnUse" color-interpolation-filters="sRGB">
<feFlood flood-opacity="0" result="BackgroundImageFix"/>
<feColorMatrix in="SourceAlpha" type="matrix" values="0 0 0 0 0 0 0 0 0 0 0 0 0 0 0 0 0 0 127 0" result="hardAlpha"/>
<feOffset dy="4"/>
<feGaussianBlur stdDeviation="2"/>
<feComposite in2="hardAlpha" operator="out"/>
<feColorMatrix type="matrix" values="0 0 0 0 0 0 0 0 0 0 0 0 0 0 0 0 0 0 0.25 0"/>
<feBlend mode="normal" in2="BackgroundImageFix" result="effect1_dropShadow_0_1"/>
<feBlend mode="normal" in="SourceGraphic" in2="effect1_dropShadow_0_1" result="shape"/>
</filter>
</defs>
</svg>
